<?xml version="1.0" encoding="iso-8859-1"?>
<!-- Uploaded to: SVG Repo, www.svgrepo.com, Generator: SVG Repo Mixer Tools -->
<!DOCTYPE svg PUBLIC "-//W3C//DTD SVG 1.1//EN" "http://www.w3.org/Graphics/SVG/1.1/DTD/svg11.dtd">
<svg fill="#000000" version="1.1" id="Capa_1" xmlns="http://www.w3.org/2000/svg" xmlns:xlink="http://www.w3.org/1999/xlink" 
	 width="800px" height="800px" viewBox="0 0 535.5 535.5" xml:space="preserve"
	>
<g>
	<path d="M190.852,397.886l54.693,94.02v-90.069c-71.336-0.44-128.84-58.58-128.84-130.012c0-71.432,57.911-129.572,129.247-130.012
		V43.595l-53.616,97.107L90.732,113.478l27.129,101.257l-96.065,55.462l96.476,55.701L91.88,424.412L190.852,397.886z"/>
	<path d="M245.951,382.71V160.937c-60.79,0.44-110.123,49.993-110.123,110.887C135.829,332.718,185.163,382.271,245.951,382.71z"/>
	<path d="M312.889,521.156c0,7.918,6.426,14.344,14.344,14.344h133.875c7.918,0,14.344-6.426,14.344-14.344v-14.344H312.889V521.156
		z"/>
	<path d="M370.264,47.812h47.812h37.742c0.325-1.492,0.508-3.031,0.508-4.609V42.85c0-13.101-11.591-23.725-25.896-23.725h-12.354V0
		h-47.812v19.125H357.01c-14.296,0-24.996,10.624-24.996,23.725v0.354c0,1.578,0.172,3.117,0.469,4.609L370.264,47.812
		L370.264,47.812z"/>
	<path d="M486.84,66.938h-1.826h-54.583H357.01H301.5c-12.278,0-25.149,4.733-31.795,13.55c-2.821,3.729-4.629,8.119-4.629,13.311
		v49.419v9.658v9.668v218.58v9.668v9.658v50.834c0,1.653,0.316,3.328,0.642,4.992c3.089,15.883,19.966,31.413,35.783,31.413h12.269
		h160.803h12.27c17.479,0,26.861-18.943,26.861-36.425V93.799C513.701,76.318,504.32,66.938,486.84,66.938z M410.551,239.062h38.164
		l-11.838,15.195l-54.296,69.729l-6.742,8.654l-14.133,18.141l23.514-83.031h-8.606h-9.562h-9.562h-27.425l22.587-29.003
		l6.934-8.903l6.875-8.836l18.494-23.753l32.11-41.234l-21.126,74.607l-2.381,8.434H410.551z"/>
</g>
</svg>