<?xml version="1.0" encoding="iso-8859-1"?>
<!-- Uploaded to: SVG Repo, www.svgrepo.com, Generator: SVG Repo Mixer Tools -->
<svg fill="#000000" height="800px" width="800px" version="1.1" id="Layer_1" xmlns="http://www.w3.org/2000/svg" xmlns:xlink="http://www.w3.org/1999/xlink" 
	 viewBox="0 0 512 512" xml:space="preserve">
<g>
	<g>
		<path d="M106.667,384c-35.355,0-64,28.645-64,64c0,35.355,28.645,64,64,64c35.355,0,64-28.645,64-64
			C170.667,412.645,142.022,384,106.667,384z M106.667,469.333c-11.791,0-21.334-9.542-21.334-21.333
			c0-11.791,9.542-21.333,21.333-21.333S128,436.209,128,448S118.458,469.333,106.667,469.333z"/>
	</g>
</g>
<g>
	<g>
		<path d="M405.333,384c-35.355,0-64,28.645-64,64c0,35.355,28.645,64,64,64c35.355,0,64-28.645,64-64
			C469.333,412.645,440.688,384,405.333,384z M405.334,469.333C393.543,469.333,384,459.791,384,448
			c0-11.791,9.542-21.333,21.333-21.333s21.334,9.542,21.334,21.333S417.125,469.333,405.334,469.333z"/>
	</g>
</g>
<g>
	<g>
		<path d="M469.333,298.666H448c-7.254,0-18.849-10.013-32.332-29.435c-4.041-5.821-6.296-9.357-13.555-21.024l-27.948-44.909
			c-12.611-20.289-34.843-32.632-58.752-32.632H171.712c-24.036,0-46.36,12.345-59.01,32.677l-28.791,49.992
			c-1.139,1.816-11.777,20.858-15.33,26.829c-2.339,3.93-4.512,7.415-6.544,10.472c-2.312,3.478-4.456,6.299-5.722,8.03H42.667
			v0.001C19.109,298.667,0,317.775,0,341.333v64C0,428.891,19.109,448,42.667,448H69.91c7.588,0,14.606-4.031,18.428-10.586
			c3.882-6.657,10.756-10.747,18.329-10.747s14.447,4.09,18.329,10.747c3.823,6.555,10.84,10.586,18.428,10.586h225.152
			c7.588,0,14.605-4.031,18.428-10.586c3.882-6.657,10.756-10.747,18.329-10.747s14.447,4.09,18.329,10.747
			c3.823,6.555,10.84,10.586,18.428,10.586h27.243C492.891,448,512,428.891,512,405.333v-64
			C512,317.775,492.891,298.666,469.333,298.666z M469.333,405.332h-16.506C440.923,392.009,423.852,384,405.333,384
			c-18.518,0-35.59,8.009-47.494,21.333H154.161C142.257,392.009,125.185,384,106.667,384s-35.59,8.009-47.494,21.333H42.667v-64H64
			c2.998,0,5.963-0.632,8.7-1.855c9.141-4.083,16.158-12.116,24.87-25.223c2.461-3.703,4.999-7.772,7.676-12.27
			c4.039-6.787,14.418-25.367,15.287-26.768l28.772-49.962c4.47-7.161,13.081-11.923,22.407-11.923h143.701
			c9.169,0,17.694,4.733,22.522,12.499l27.953,44.916c7.666,12.322,10.127,16.181,14.732,22.815
			c21.034,30.298,41.265,47.77,67.38,47.77h21.333V405.332z"/>
	</g>
</g>
<g>
	<g>
		<path d="M415.668,269.222c-4.039-5.818-6.293-9.354-13.544-21.008l-2.144-3.459c-3.89-6.277-10.749-10.097-18.134-10.097H277.333
			c-11.782,0-21.333,9.551-21.333,21.333v64c0,11.782,9.551,21.333,21.333,21.333H448v-42.667
			C440.746,298.657,429.151,288.644,415.668,269.222z M298.667,298.658v-21.333h71.328c4.653,7.429,6.96,10.951,10.625,16.23
			c1.211,1.744,2.418,3.445,3.625,5.103H298.667z"/>
	</g>
</g>
<g>
	<g>
		<path d="M277.334,234.667H170.667c-11.782,0-21.333,9.551-21.333,21.333v64c-0.001,11.782,9.551,21.333,21.333,21.333h106.667
			c11.782,0,21.333-9.551,21.333-21.333v-64C298.667,244.218,289.116,234.667,277.334,234.667z M256,298.666h-64v-21.333h64V298.666
			z"/>
	</g>
</g>
<g>
	<g>
		<path d="M311,39.292H76.333c-35.355,0-64,28.645-64,64v42.667c0,58.95,47.717,106.667,106.667,106.667
			c11.782,0,21.333-9.551,21.333-21.333c0-11.782-9.551-21.335-21.333-21.335c-35.386,0-64-28.614-64-64v-42.667
			c0-11.791,9.542-21.333,21.333-21.333H311c11.782,0,21.333-9.551,21.333-21.333S322.782,39.292,311,39.292z"/>
	</g>
</g>
<g>
	<g>
		<path d="M405.333,0H320c-11.782,0-21.333,9.551-21.333,21.333v85.333c0,11.783,9.551,21.334,21.333,21.334h85.333
			c11.782,0,21.333-9.551,21.333-21.333V21.333C426.667,9.551,417.115,0,405.333,0z M384,85.334h-42.667V42.667H384V85.334z"/>
	</g>
</g>
<g>
	<g>
		<path d="M448,0h-42.667C393.551,0,384,9.551,384,21.333s9.551,21.334,21.333,21.334H448c11.782,0,21.333-9.551,21.333-21.333
			C469.333,9.552,459.782,0,448,0z"/>
	</g>
</g>
<g>
	<g>
		<path d="M448,85.333h-42.667c-11.782,0-21.333,9.551-21.333,21.333c0,11.782,9.551,21.334,21.333,21.334H448
			c11.782,0,21.333-9.551,21.333-21.333S459.782,85.333,448,85.333z"/>
	</g>
</g>
</svg>