<?xml version="1.0" encoding="utf-8"?>
<!-- Uploaded to: SVG Repo, www.svgrepo.com, Generator: SVG Repo Mixer Tools -->
<svg fill="#000000" version="1.1" id="Layer_1" xmlns="http://www.w3.org/2000/svg" xmlns:xlink="http://www.w3.org/1999/xlink" 
	 width="800px" height="800px" viewBox="0 0 260 260" enable-background="new 0 0 260 260" xml:space="preserve">
<path d="M166,258c-15.163,0-27.5-12.337-27.5-27.5S150.837,203,166,203s27.5,12.337,27.5,27.5S181.163,258,166,258z M166,217
	c-7.444,0-13.5,6.056-13.5,13.5S158.556,244,166,244s13.5-6.056,13.5-13.5S173.444,217,166,217z M238,46v-8h-20.442
	c-0.519-2.545-1.528-4.911-2.915-7.006l14.45-14.45l-5.656-5.657l-14.445,14.445c-2.09-1.388-4.452-2.399-6.991-2.922V2h-8v20.397
	c-2.566,0.518-4.952,1.531-7.062,2.931L172.51,10.901l-5.656,5.657l14.429,14.429c-1.389,2.097-2.4,4.465-2.919,7.013H158v8h20.364
	c0.521,2.554,1.534,4.929,2.93,7.03l-14.425,14.425l5.656,5.657l14.431-14.431c2.106,1.394,4.486,2.404,7.045,2.921V82h8V61.59
	c2.533-0.521,4.888-1.529,6.974-2.912l14.448,14.449l5.656-5.657l-14.446-14.447c1.393-2.099,2.405-4.471,2.925-7.023H238z
	 M197.961,30c6.617,0,12,5.383,12,12s-5.383,12-12,12s-12-5.383-12-12S191.344,30,197.961,30z M2,2l16.79,28h24L26.01,2H2z M57.99,2
	H34l16.79,28h23.99L57.99,2z M139.534,138l-16.787-28H98.752l16.788,28H139.534z M90,2H66l16.79,28h24.01L90,2z M83.516,138h24.031
	l-16.788-28H66.734L83.516,138z M125.955,102h24.033l-16.796-28h-24.024L125.955,102z M104.371,66h24.022l-16.796-28H87.584
	L104.371,66z M147.539,138h24.044l-16.796-28h-24.036L147.539,138z M117.951,102l-16.787-28H77.168l16.788,28H117.951z M55.584,38
	l16.788,28h23.996L79.58,38H55.584z M47.591,38h-24.01l16.782,28h24.016L47.591,38z M228.29,121H258v-12l-30.97,0.06
	c-5.6,0-10.8,2.93-13.7,7.73L186,162.06h-48c-8.84,0-16,7.16-16,16V179H67c-2.757,0-5-2.243-5-5v-72h23.963L69.175,74H45.158
	L52,85.416V174c0,8.271,6.729,15,15,15h55v17.06h-16v4c0,8.84,7.16,15.94,16,15.94h7.28c2.25-18.28,17.83-32.44,36.72-32.44
	s34.47,14.16,36.72,32.44H258v-64h-56l22.84-39.02C225.56,121.75,226.87,121,228.29,121z"/>
</svg>